<?xml version="1.0" encoding="UTF-8"?>
<svg id="Camada_1" xmlns="http://www.w3.org/2000/svg" version="1.1" viewBox="0 0 841.89 1190.55">
  <!-- Generator: Adobe Illustrator 29.1.0, SVG Export Plug-In . SVG Version: 2.1.0 Build 142)  -->
  <defs>
    <style>
      .st0, .st1 {
        fill: #fff;
      }

      .st2 {
        stroke-width: 5px;
      }

      .st2, .st3 {
        fill: none;
        stroke: #fff;
        stroke-miterlimit: 10;
      }

      .st1 {
        font-family: ParisineOfficeStd-Bold, 'Parisine Office Std';
        font-size: 57.02px;
        font-weight: 700;
      }

      .st3 {
        stroke-width: 3px;
      }
    </style>
  </defs>
  <text class="st1" transform="translate(1034.38 466.93)"><tspan x="0" y="0">Dr.</tspan></text>
  <g>
    <path class="st0" d="M1089.69,481.23c14.1,0,23.37,3.95,23.37,16.2,0,7.49-4.51,11.84-10.8,14.02v.16c4.43,3.3,6.21,7.41,8.38,13.3,1.85,5,3.71,9.91,5.88,13.22h-12.81c-1.85-3.06-3.3-7.25-4.67-10.88-3.14-8.38-5.56-12.17-11.85-12.17h-4.43v23.05h-11.77v-56.89h18.7ZM1082.76,506.29h4.75c5.32,0,13.38-.24,13.38-8.22,0-6.93-6.61-7.74-11.85-7.74h-6.29v15.96Z"/>
    <path class="st0" d="M1156.98,538.12l-3.87-11.52h-21.35l-3.79,11.52h-11.6l20.15-56.97h12.73l20.23,56.97h-12.49ZM1145.13,502.18c-1.21-3.63-2.26-8.3-2.5-10.31h-.16c-.24,2.01-1.45,6.69-2.66,10.31l-5.08,15.55h15.55l-5.16-15.55Z"/>
    <path class="st0" d="M1195.42,538.12h-19.9v-56.89h20.71c9.11,0,20.63,2.01,20.63,14.34,0,5.88-4.67,10.31-9.19,11.2v.16c5.88.81,11.04,5.4,11.04,13.54,0,14.34-12.49,17.65-23.29,17.65ZM1193.73,490.09h-6.45v13.86h6.85c4.51,0,11.28-.24,11.28-6.85,0-7.01-7.33-7.01-11.68-7.01ZM1194.53,512.41h-7.25v16.84h7.49c5.8,0,11.93-1.05,11.93-9.02,0-7.25-7.74-7.82-12.17-7.82Z"/>
    <path class="st0" d="M1227.25,538.12v-56.89h34.57v9.59h-22.8v12.65h22v9.19h-22v15.88h24.01v9.59h-35.78Z"/>
  </g>
  <g>
    <path class="st2" d="M1023.42,477c0-3.91-3.17-7.09-7.09-7.09-.27,0-.54.02-.8.05l-16.22-28.09c-1.07-1.85-1.2-4.04-.61-6.1.29-.99.36-2.06.18-3.18-.48-2.86-2.74-5.19-5.58-5.74-2.89-.56-5.55.65-7.1,2.73-1.35,1.82-3.52,2.83-5.78,2.83-7.15,0-20.99,0-28.14,0-2.26,0-4.43-1.01-5.78-2.82-1.5-2.02-4.06-3.22-6.86-2.77s-5.31,2.81-5.81,5.73c-.19,1.09-.13,2.13.13,3.1.54,2.01.38,4.15-.66,5.96l-16.38,28.38c-.3-.04-.6-.07-.91-.07-3.91,0-7.09,3.17-7.09,7.09,0,2.32,24.39,41.88,24.39,41.88,1.04,1.81,1.21,3.94.66,5.96-.26.97-.32,2.01-.13,3.1.51,2.92,2.89,5.27,5.81,5.73,2.8.45,5.35-.75,6.85-2.77,1.35-1.82,3.52-2.83,5.78-2.83,7.15,0,20.99,0,28.14,0,2.26,0,4.43,1.01,5.78,2.83,1.5,2.02,4.06,3.22,6.86,2.77,2.96-.47,5.35-2.87,5.83-5.82.18-1.1.1-2.16-.18-3.14-.59-2.05-.46-4.25.61-6.1,0,0,24.11-39.34,24.11-41.61Z"/>
    <path class="st3" d="M979.48,442.99h-26.62c-5.07,0-9.76,2.71-12.3,7.1l-13.31,23.05c-2.54,4.39-2.54,9.81,0,14.2l13.31,23.05c2.54,4.39,7.22,7.1,12.3,7.1h26.62c5.07,0,9.76-2.71,12.3-7.1l13.31-23.05c2.54-4.39,2.54-9.81,0-14.2l-13.31-23.05c-2.54-4.39-7.22-7.1-12.3-7.1Z"/>
    <path class="st0" d="M966.2,446.98c-1.32,2.78-3.8,4.72-6.18,6.55-.39.34-1.36,1-.66,1.5.6-.67,2.26.22,1.3.94-.86.81-2.05,1.1-3.01,1.77-.85.46-1.71.94-2.38,1.65-.05,1.1,1.37.49,1.94.95.75.8-.32,2.14-1.3,1.84-1.25.04-2.12,1.14-2.59,2.19-.98,1.52-2.84,1.96-4.31,2.83-.85.49-1.67,1.04-2.45,1.61-1.02.69-.13,2.07.95,1.73,1.17-.12,2.22-1.03,3.42-.77,1.09.38,1.4,1.82,1.03,2.81-.28.8-.95,1.36-1.48,1.99-.87.88-2.01,1.46-3.21,1.73-1.16.39-2.2,1.1-2.97,2.06-.88.89-1.76,1.79-2.78,2.54-.32.82.58,1.52,1.34,1.49,1.59-.1,2.69-1.4,4.05-2.07,1.12-.51,2.45.71,2.17,1.88-.09,1.14-1.15,1.72-2.1,2.07-2.79,1.4-5.21,3.43-7.36,5.68-.44.91-1.67.64-2.32,1.27-.43.8.65,1.22,1.29,1.14,2.76-.33,5.33-1.5,7.77-2.78.91-.43,1.76-1,2.7-1.35.89-.22,2.12.17,2.28,1.17,0,1.06-1.06,1.65-1.89,2.07-2.57,1.35-5.4,2.1-8.15,2.99-1.03-.29-1.81,1.54-.68,1.87,1.19.41,2.47.08,3.69.03,3.78-.58,7.08-2.62,10.62-3.95,1.47-.48,3.2.19,3.93,1.57.73,1.23.66,2.84-.11,4.03-1.21,2.6-3.06,4.98-5.54,6.48-1.56.77-3.37,1.06-4.7,2.24-1.23.41.62,2.07.89.75.74-1.01,2.05-1.31,3.23-1.35,1.78-.19,3.67-.52,5.06-1.76,1.24-.96,2.46-2.29,4.15-2.31.93.11,1.85.86,2.8.4.83-.38,2.13-.16,2.34.86.39,1.19,1.62,1.73,2.59,2.37.35.49,1.52,1.77,1.79.65-.22-.8.09-2.03,1.15-1.76.92.04,1.79.38,2.71.44,1.22.25,2.24,1.09,2.93,2.1.48.66,1.52,1.79,2.3.92.48-.9-.44-1.66-1.19-1.98-1.09-.68-2.02-1.58-2.98-2.43-1.41-1.31-2.62-2.98-2.85-4.95-.3-1.96-.14-3.95.11-5.9.32-1.26,1.93-1.94,3.05-1.27,1.58.72,3.15,1.75,4.96,1.64,2.62.06,5.31-.45,7.87.31,2.49.78,4.27,2.89,6.7,3.8.54.33,1.24.02,1.44-.56.24-.52.07-1.19-.43-1.49-2.81-2.84-6.65-4.22-9.91-6.43-1.02-.26-1.21-1.91-.26-2.38,1.24-.9,3.01-.48,4.11.45.93.55,1.98.96,3.08.96,1.12-.35.58-1.97-.43-2.09-1.82-1.03-3.12-2.71-4.7-4.05-.91-.77-1.9-1.55-3.12-1.69-.67-.12-1.35-.15-2.02-.1-.63-.69.21-1.74,1.03-1.66.84.06,1.68.12,2.51,0,.94-.07,1.87-.17,2.82-.17.76.52,2.28-.38,1.59-1.27-.75-.66-1.83-.6-2.73-.94-1.57-.52-3.17-.93-4.79-1.26-1.13-.07-.99-1.56,0-1.72.65-.24,1.22.26,1.84.34,1.07.23,2.17.23,3.24.46.91-.45.21-1.77-.61-1.85-1.93-.69-3.6-1.94-5.24-3.15-1.8-1.36-3.44-2.92-5.26-4.25-.66-.41-1.75-.53-1.92-1.44-.06-.84.92-1.22,1.62-1.02.99.29,1.91.8,2.92,1.05.79.13,1.61.37,2.37.27.97-.61-.42-1-.92-1.21-1.29-.7-2.44-1.63-3.6-2.51-.98-.84.83-1.21,1.46-.89,1.04.44,1.16-1.08.38-1.47-.92-.39-1.71-1.04-2.55-1.61-1.51-1.07-3.21-1.92-5.07-2.16-2.08-.21-4.02-1.4-5.12-3.18-.68-1.01-1.18-2.13-1.67-3.25ZM959.37,458.63c1.07.03.91,1.96-.15,1.83-1.02-.07-.96-2.04.15-1.83ZM969.47,459.67c1.04-.19,1.26,1.71.22,1.8-1.08.19-1.49-1.92-.22-1.8ZM966.51,459.92c1.06.21.87,2.05-.2,2.06-.78.17-1.62.71-2.41.31-.64-.68.29-1.68,1-1.9.55-.11,1.05-.36,1.6-.47ZM973.32,459.93c1.02.37.66,2.17-.41,2.15-1.02.14-1.49-1.56-.54-1.96.31-.11.63-.2.96-.19ZM961.84,461.97c.75.71.31,2.09-.62,2.42-.67.37-1.57,1.25-2.3.53-.39-.88.59-1.54,1.17-2.03.52-.4,1.09-.77,1.74-.91ZM970.39,465.94c1.07.51.53,2.44-.65,2.32-.97-.24-.84-1.9.13-2.03.18-.07.35-.17.52-.28ZM966.99,466.13c1,.47.24,2.14-.77,1.9-1.05-.12-1.03-1.96.13-1.8.22-.01.44-.02.65-.1ZM974.32,467.09c1.1-.34,2.42.79,2.06,1.94-.49.89-1.7,1-2.57.67-1-.05-1.67-1.55-.78-2.18.37-.28.83-.39,1.28-.43ZM958.09,467.38c.91-.49,1.87.99,1.1,1.65-.51.75-1.83,1.06-2.4.22-.48-.82.3-2.19,1.3-1.87ZM953.9,468.08c1.03.14,1.7,1.08,2.08,1.97.09,1.09-1.51,1.68-2.21.89-.79-.49-1.47-1.51-1.06-2.45.25-.37.76-.53,1.19-.41ZM978.97,472c1.12-.29,1.93,1.49.97,2.14-.88.8-2.58-.26-2.13-1.4.23-.42.68-.7,1.16-.74ZM964.74,474.04c.94.12.63,1.74-.23,1.69-.93-.17-.72-1.78.23-1.69ZM959.98,474.91c.76-.54,1.75.78,1.11,1.39-.76.54-1.75-.76-1.11-1.39ZM967.54,475.07c.89.54,1.41,1.54,1.52,2.56-.42.95-2.07.72-2.25-.29-.32-.8-.03-1.82.73-2.27ZM970.18,476.63c1.14-.29.73,2.1-.22,1.27-.32-.38-.15-1,.22-1.27ZM953.61,478.29c.76-.22,1.86.01,2.07.88.09.82-.81,1.24-1.47,1.44-1.05.33-2.08.86-3.22.79-.85-.49-1.15-1.48-1.46-2.34.82-.77,2.03-.54,3.04-.74.34-.02.69-.03,1.03-.03ZM979.32,482.03c.96-.47,2,1.06,1.19,1.77-1.01,1.16-2.96,1.38-4.16.4-.15-1.03.88-1.78,1.8-1.92.38-.11.77-.27,1.17-.25ZM984.74,483.21c1.1-.19,1.96,1.38,1.18,2.18-.74,1.12-2.51,1.41-3.52.49-.39-.93.41-1.89,1.26-2.19.37-.16.71-.35,1.09-.49ZM957.48,484.87c1.02-.1,1.95.91,1.81,1.91.73.72-.57,2.07-1.3,1.32-.65-.78-.64-1.84-.89-2.78-.01-.21.14-.48.38-.45ZM965.27,485.46c1.05-.45,2.41.8,1.84,1.86-.41.87-2,.58-1.95-.43,0-.48-.04-.97.11-1.44ZM961.48,486.13c1.05-.24,2.02,1.12,1.43,2.03-1.05.09-1.59-1.15-1.43-2.03Z"/>
  </g>
  <g>
    <polygon class="st0" points="1050 472.41 1038.95 472.41 1034.25 478.08 1043.11 478.08 1050 472.41"/>
    <path class="st0" d="M1032.4,481.14l-20.15,56.97h11.6l3.79-11.52h21.35l3.87,11.52h12.49l-20.23-56.97h-12.73ZM1030.62,517.73l5.08-15.55c1.21-3.63,2.42-8.3,2.66-10.31h.16c.24,2.01,1.29,6.69,2.5,10.31l5.16,15.55h-15.55Z"/>
  </g>
</svg>